<svg width="42" height="42" viewBox="0 0 42 42" fill="none" xmlns="http://www.w3.org/2000/svg">
<path d="M0.5 8C0.5 3.85786 3.85786 0.5 8 0.5H34C38.1421 0.5 41.5 3.85786 41.5 8V34C41.5 38.1421 38.1421 41.5 34 41.5H8C3.85786 41.5 0.5 38.1421 0.5 34V8Z" fill="#FEE4E2"/>
<path d="M0.5 8C0.5 3.85786 3.85786 0.5 8 0.5H34C38.1421 0.5 41.5 3.85786 41.5 8V34C41.5 38.1421 38.1421 41.5 34 41.5H8C3.85786 41.5 0.5 38.1421 0.5 34V8Z" stroke="#FECDCA"/>
<path opacity="0.4" d="M25.0133 24.6667V34.32L9.01335 34.3467V24.6667L9 22.6667V14.4267C9 13.5334 9.45335 12.7067 10.1867 12.2133L15.52 8.65337C16.4134 8.05337 17.5866 8.05337 18.48 8.65337L23.8133 12.2133C24.56 12.7067 25 13.5334 25 14.4267V22.6667L25.0133 24.6667Z" fill="#F04438"/>
<path d="M34.3333 33.3334H32.64V29.3334C33.9066 28.9201 34.8267 27.7334 34.8267 26.3334V23.6667C34.8267 21.9201 33.4 20.4934 31.6533 20.4934C29.9066 20.4934 28.48 21.9201 28.48 23.6667V26.3334C28.48 27.7201 29.3866 28.8934 30.6266 29.3201V33.3334H7.66666C7.11999 33.3334 6.66666 33.7867 6.66666 34.3334C6.66666 34.8801 7.11999 35.3334 7.66666 35.3334H31.5733C31.6 35.3334 31.6133 35.3468 31.64 35.3468C31.6666 35.3468 31.68 35.3334 31.7067 35.3334H34.3333C34.88 35.3334 35.3333 34.8801 35.3333 34.3334C35.3333 33.7867 34.88 33.3334 34.3333 33.3334Z" fill="#F04438"/>
<path d="M25.0133 24.6667H9.01335L9 22.6667H25L25.0133 24.6667Z" fill="#F04438"/>
<path d="M17 35.3333C16.4533 35.3333 16 34.8799 16 34.3333V29.3333C16 28.7866 16.4533 28.3333 17 28.3333C17.5467 28.3333 18 28.7866 18 29.3333V34.3333C18 34.8799 17.5467 35.3333 17 35.3333Z" fill="#F04438"/>
<path d="M17 19.3334C18.2887 19.3334 19.3333 18.2887 19.3333 17.0001C19.3333 15.7114 18.2887 14.6667 17 14.6667C15.7113 14.6667 14.6667 15.7114 14.6667 17.0001C14.6667 18.2887 15.7113 19.3334 17 19.3334Z" fill="#F04438"/>
</svg>
