<svg xmlns="http://www.w3.org/2000/svg" viewBox="0 0 65.5 64.99"><rect x="5" y="4.5" width="56" height="56" rx="8" transform="translate(-6.93 55.96) rotate(-75)" style="fill:#415aa8"/><rect y="8.87" width="56" height="56" rx="8" style="fill:#f8f4f9;fill-opacity:0.5"/><rect x="0.5" y="9.37" width="55" height="55" rx="7.5" style="fill:none;stroke:#a2b6de;stroke-opacity:0.5"/><path d="M42.17,43.87h2.29v2.34H18.84V43.87h2.33V24a1.17,1.17,0,0,1,.34-.83,1.22,1.22,0,0,1,.83-.34H41a1.22,1.22,0,0,1,.83.34,1.17,1.17,0,0,1,.34.83Zm-11.71-14H28.17v2.34h2.29v2.33H32.8V32.21h2.33V29.87H32.84V27.54H30.46Zm3.5,14H36.3v-7H27v7h2.34V39.21H34Z" transform="translate(0 0)" style="fill:none;stroke:#fff;stroke-miterlimit:10;stroke-width:0.5px"/></svg>