<svg width="42" height="42" viewBox="0 0 42 42" fill="none" xmlns="http://www.w3.org/2000/svg">
<path d="M0.5 8C0.5 3.85786 3.85786 0.5 8 0.5H34C38.1421 0.5 41.5 3.85786 41.5 8V34C41.5 38.1421 38.1421 41.5 34 41.5H8C3.85786 41.5 0.5 38.1421 0.5 34V8Z" fill="#D3F8DF"/>
<path d="M0.5 8C0.5 3.85786 3.85786 0.5 8 0.5H34C38.1421 0.5 41.5 3.85786 41.5 8V34C41.5 38.1421 38.1421 41.5 34 41.5H8C3.85786 41.5 0.5 38.1421 0.5 34V8Z" stroke="#AAF0C4"/>
<path opacity="0.4" d="M8.69332 18.3334C8.11999 18.3334 7.66666 17.8801 7.66666 17.3067V14.2267C7.66666 10.6134 10.6133 7.66675 14.2267 7.66675H17.3067C17.88 7.66675 18.3333 8.12008 18.3333 8.69341C18.3333 9.26675 17.88 9.72008 17.3067 9.72008H14.2267C11.7333 9.72008 9.71999 11.7467 9.71999 14.2267V17.3067C9.71999 17.8801 9.25332 18.3334 8.69332 18.3334Z" fill="#16B364"/>
<path opacity="0.4" d="M33.3067 18.3334C32.7467 18.3334 32.28 17.8801 32.28 17.3067V14.2267C32.28 11.7334 30.2533 9.72008 27.7733 9.72008H24.6933C24.12 9.72008 23.6667 9.25341 23.6667 8.69341C23.6667 8.13341 24.12 7.66675 24.6933 7.66675H27.7733C31.3867 7.66675 34.3333 10.6134 34.3333 14.2267V17.3067C34.3333 17.8801 33.88 18.3334 33.3067 18.3334Z" fill="#16B364"/>
<path d="M27.7733 34.3334H25.92C25.36 34.3334 24.8933 33.8801 24.8933 33.3067C24.8933 32.7467 25.3467 32.2801 25.92 32.2801H27.7733C30.2667 32.2801 32.28 30.2534 32.28 27.7734V25.9334C32.28 25.3734 32.7333 24.9067 33.3067 24.9067C33.8667 24.9067 34.3333 25.3601 34.3333 25.9334V27.7734C34.3333 31.3867 31.3867 34.3334 27.7733 34.3334Z" fill="#16B364"/>
<path d="M17.3067 34.3334H14.2267C10.6133 34.3334 7.66666 31.3867 7.66666 27.7734V24.6934C7.66666 24.1201 8.11999 23.6667 8.69332 23.6667C9.26666 23.6667 9.71999 24.1201 9.71999 24.6934V27.7734C9.71999 30.2667 11.7467 32.2801 14.2267 32.2801H17.3067C17.8667 32.2801 18.3333 32.7334 18.3333 33.3067C18.3333 33.8801 17.88 34.3334 17.3067 34.3334Z" fill="#16B364"/>
<path d="M29.6133 19.9734H27.8H14.2H12.3867C11.8133 19.9734 11.36 20.4401 11.36 21.0001C11.36 21.5601 11.8133 22.0267 12.3867 22.0267H14.2H27.8H29.6133C30.1867 22.0267 30.64 21.5601 30.64 21.0001C30.64 20.4401 30.1867 19.9734 29.6133 19.9734Z" fill="#16B364"/>
<path d="M14.2 23.5866V24.0266C14.2 26.24 15.9867 28.0266 18.2 28.0266H23.8C26.0133 28.0266 27.8 26.24 27.8 24.0266V23.5866C27.8 23.4266 27.68 23.3066 27.52 23.3066H14.48C14.32 23.3066 14.2 23.4266 14.2 23.5866Z" fill="#16B364"/>
<path opacity="0.4" d="M14.2 18.4134V17.9734C14.2 15.7601 15.9867 13.9734 18.2 13.9734H23.8C26.0133 13.9734 27.8 15.7601 27.8 17.9734V18.4134C27.8 18.5734 27.68 18.6934 27.52 18.6934H14.48C14.32 18.6934 14.2 18.5734 14.2 18.4134Z" fill="#16B364"/>
</svg>
