<svg width="42" height="42" viewBox="0 0 42 42" fill="none" xmlns="http://www.w3.org/2000/svg">
<path d="M0.5 8C0.5 3.85786 3.85786 0.5 8 0.5H34C38.1421 0.5 41.5 3.85786 41.5 8V34C41.5 38.1421 38.1421 41.5 34 41.5H8C3.85786 41.5 0.5 38.1421 0.5 34V8Z" fill="#FEE4E2"/>
<path d="M0.5 8C0.5 3.85786 3.85786 0.5 8 0.5H34C38.1421 0.5 41.5 3.85786 41.5 8V34C41.5 38.1421 38.1421 41.5 34 41.5H8C3.85786 41.5 0.5 38.1421 0.5 34V8Z" stroke="#F9DBAF"/>
<path d="M32.96 6.33325H29.04C27.3467 6.33325 26.3333 7.34659 26.3333 9.03992V12.9599C26.3333 14.6533 27.3467 15.6666 29.04 15.6666H32.96C34.6533 15.6666 35.6667 14.6533 35.6667 12.9599V9.03992C35.6667 7.34659 34.6533 6.33325 32.96 6.33325ZM33.8133 11.2399C33.32 12.8133 31.6 13.6666 31 13.6666C30.4 13.6666 28.6933 12.8399 28.1867 11.2399C28.1067 10.9999 28.0667 10.7333 28.0667 10.4799C28.0667 9.61325 28.5067 8.71992 29.4267 8.42659C29.9733 8.25325 30.56 8.34659 30.9733 8.69325C31.4 8.35992 31.9867 8.25325 32.5467 8.42659C33.7733 8.81325 34.16 10.1866 33.8133 11.2399Z" fill="#EF6820"/>
<path opacity="0.4" d="M32.96 15.6667H29.04C27.3467 15.6667 26.3333 14.6534 26.3333 12.9601V9.04008C26.3333 8.50675 26.44 8.05341 26.6267 7.66675H14.3333C10.6533 7.66675 7.66667 10.6401 7.66667 14.3067V22.2801V23.6134C7.66667 27.2801 10.6533 30.2534 14.3333 30.2534H16.3333C16.6933 30.2534 17.1733 30.4934 17.4 30.7867L19.4 33.4401C20.28 34.6134 21.72 34.6134 22.6 33.4401L24.6 30.7867C24.8533 30.4534 25.2533 30.2534 25.6667 30.2534H27.6667C31.3467 30.2534 34.3333 27.2801 34.3333 23.6134V15.3601C33.9467 15.5601 33.4933 15.6667 32.96 15.6667Z" fill="#EF6820"/>
<path d="M21 20.9999C20.2533 20.9999 19.6667 20.3999 19.6667 19.6666C19.6667 18.9333 20.2667 18.3333 21 18.3333C21.7333 18.3333 22.3333 18.9333 22.3333 19.6666C22.3333 20.3999 21.7467 20.9999 21 20.9999Z" fill="#EF6820"/>
<path d="M26.3333 20.9999C25.5867 20.9999 25 20.3999 25 19.6666C25 18.9333 25.6 18.3333 26.3333 18.3333C27.0667 18.3333 27.6667 18.9333 27.6667 19.6666C27.6667 20.3999 27.08 20.9999 26.3333 20.9999Z" fill="#EF6820"/>
<path d="M15.6667 20.9999C14.92 20.9999 14.3333 20.3999 14.3333 19.6666C14.3333 18.9333 14.9333 18.3333 15.6667 18.3333C16.4 18.3333 17 18.9333 17 19.6666C17 20.3999 16.4133 20.9999 15.6667 20.9999Z" fill="#EF6820"/>
</svg>
